<svg width="405" height="98" viewBox="0 0 405 98" fill="none" xmlns="http://www.w3.org/2000/svg">
<path d="M99.6015 20.72H108.818V43.4H109.178C109.994 41.384 111.242 39.656 112.922 38.216C114.65 36.728 117.026 35.984 120.05 35.984C123.698 35.984 126.65 37.208 128.906 39.656C131.21 42.056 132.362 45.512 132.362 50.024V74H123.146V51.32C123.146 45.944 120.818 43.256 116.162 43.256C115.202 43.256 114.29 43.376 113.426 43.616C112.562 43.856 111.77 44.24 111.05 44.768C110.378 45.248 109.826 45.848 109.394 46.568C109.01 47.288 108.818 48.152 108.818 49.16V74H99.6015V20.72ZM158.757 67.448H158.397C157.581 69.464 156.309 71.216 154.581 72.704C152.901 74.144 150.549 74.864 147.525 74.864C143.877 74.864 140.901 73.664 138.597 71.264C136.341 68.816 135.213 65.336 135.213 60.824V36.848H144.429V59.528C144.429 64.904 146.757 67.592 151.413 67.592C152.325 67.592 153.213 67.472 154.077 67.232C154.989 66.992 155.781 66.632 156.453 66.152C157.173 65.624 157.725 65 158.109 64.28C158.541 63.56 158.757 62.696 158.757 61.688V36.848H167.973V74H158.757V67.448ZM187.601 74.864C183.521 74.864 179.993 74.24 177.017 72.992C174.041 71.696 171.713 69.968 170.033 67.808L175.433 62.912C176.969 64.592 178.721 65.888 180.689 66.8C182.705 67.712 185.033 68.168 187.673 68.168C189.977 68.168 191.825 67.784 193.217 67.016C194.609 66.248 195.305 65.072 195.305 63.488C195.305 62.144 194.825 61.232 193.865 60.752C192.953 60.272 191.729 59.912 190.193 59.672L184.217 58.736C182.681 58.496 181.169 58.16 179.681 57.728C178.241 57.248 176.945 56.6 175.793 55.784C174.689 54.968 173.801 53.936 173.129 52.688C172.457 51.392 172.121 49.832 172.121 48.008C172.121 44.12 173.561 41.144 176.441 39.08C179.369 37.016 183.377 35.984 188.465 35.984C192.065 35.984 195.113 36.488 197.609 37.496C200.153 38.504 202.241 39.92 203.873 41.744L199.049 47.072C197.993 45.92 196.577 44.912 194.801 44.048C193.073 43.136 190.865 42.68 188.177 42.68C183.473 42.68 181.121 44.144 181.121 47.072C181.121 48.416 181.601 49.352 182.561 49.88C183.521 50.36 184.769 50.72 186.305 50.96L192.209 51.896C193.793 52.136 195.305 52.496 196.745 52.976C198.233 53.408 199.529 54.032 200.633 54.848C201.785 55.664 202.697 56.696 203.369 57.944C204.041 59.192 204.377 60.728 204.377 62.552C204.377 66.392 202.889 69.416 199.913 71.624C196.985 73.784 192.881 74.864 187.601 74.864ZM226.237 74C222.685 74 220.069 73.064 218.389 71.192C216.709 69.32 215.869 66.896 215.869 63.92V44.12H205.069V36.848H212.413C213.901 36.848 214.957 36.56 215.581 35.984C216.205 35.36 216.517 34.28 216.517 32.744V23.744H225.085V36.848H240.205V44.12H225.085V66.728H240.205V74H226.237ZM243.273 66.728H255.081V27.992H243.273V20.72H264.297V66.728H276.177V74H243.273V66.728ZM296.525 74.864C293.549 74.864 290.909 74.408 288.605 73.496C286.301 72.584 284.357 71.288 282.773 69.608C281.237 67.928 280.061 65.912 279.245 63.56C278.429 61.16 278.021 58.472 278.021 55.496C278.021 52.472 278.429 49.76 279.245 47.36C280.109 44.96 281.309 42.92 282.845 41.24C284.381 39.56 286.229 38.264 288.389 37.352C290.597 36.44 293.069 35.984 295.805 35.984C298.493 35.984 300.917 36.44 303.077 37.352C305.237 38.216 307.061 39.464 308.549 41.096C310.085 42.728 311.261 44.696 312.077 47C312.893 49.304 313.301 51.848 313.301 54.632V57.656H287.237V58.592C287.237 61.28 288.077 63.464 289.757 65.144C291.437 66.776 293.789 67.592 296.813 67.592C299.117 67.592 301.085 67.136 302.717 66.224C304.397 65.264 305.789 64.016 306.893 62.48L312.149 67.736C310.805 69.704 308.837 71.384 306.245 72.776C303.701 74.168 300.461 74.864 296.525 74.864ZM295.877 42.752C293.285 42.752 291.197 43.568 289.613 45.2C288.029 46.832 287.237 48.992 287.237 51.68V52.184H304.085V51.536C304.085 48.848 303.341 46.712 301.853 45.128C300.413 43.544 298.421 42.752 295.877 42.752Z" fill="black"/>
<path d="M42.8734 4.79856C45.1958 2.45216 49.0057 2.45215 51.3282 4.79856L92.503 46.3978C94.7677 48.6858 94.7677 52.3529 92.503 54.641L51.3282 96.2402C49.0057 98.5866 45.1958 98.5866 42.8734 96.2402L1.69854 54.641C-0.566177 52.3529 -0.566182 48.6859 1.69854 46.3978L42.8734 4.79856Z" fill="#A321EF"/>
<path d="M45.3656 59.5952L7.65053 67.6157L22.1214 76.2584L45.3656 59.5952Z" fill="white"/>
<path d="M64.3771 41.3652C64.7821 40.3996 66.1604 40.3996 66.5654 41.3652L68.864 46.8453C68.9964 47.1609 69.2606 47.4038 69.5878 47.5106L75.3818 49.402C76.4683 49.7567 76.4683 51.2821 75.3818 51.6368L69.5878 53.5282C69.2606 53.635 68.9964 53.8778 68.864 54.1935L66.5654 59.6735C66.1604 60.6391 64.7821 60.6391 64.3771 59.6735L62.0785 54.1935C61.9461 53.8778 61.6819 53.635 61.3547 53.5282L55.5607 51.6368C54.4742 51.2821 54.4742 49.7567 55.5607 49.402L61.3547 47.5106C61.6819 47.4038 61.9461 47.1609 62.0785 46.8453L64.3771 41.3652Z" fill="white"/>
<rect width="90" height="34" rx="17" transform="matrix(-1 0 0 1 405 17)" fill="#A321EF" fill-opacity="0.14"/>
<path d="M336.112 25.248H341.8C343.24 25.248 344.368 25.64 345.184 26.424C346 27.208 346.408 28.256 346.408 29.568C346.408 30.576 346.16 31.368 345.664 31.944C345.184 32.52 344.56 32.928 343.792 33.168V33.24C344.736 33.464 345.512 33.888 346.12 34.512C346.728 35.12 347.032 36.008 347.032 37.176C347.032 37.848 346.92 38.48 346.696 39.072C346.472 39.664 346.152 40.176 345.736 40.608C345.336 41.04 344.856 41.384 344.296 41.64C343.752 41.88 343.16 42 342.52 42H336.112V25.248ZM341.92 40.248C342.848 40.248 343.576 40.04 344.104 39.624C344.632 39.208 344.896 38.568 344.896 37.704V36.72C344.896 35.872 344.632 35.24 344.104 34.824C343.576 34.392 342.848 34.176 341.92 34.176H338.128V40.248H341.92ZM341.584 32.52C342.432 32.52 343.096 32.336 343.576 31.968C344.056 31.584 344.296 31.008 344.296 30.24V29.304C344.296 28.536 344.056 27.96 343.576 27.576C343.096 27.192 342.432 27 341.584 27H338.128V32.52H341.584ZM353.407 42.288C352.511 42.288 351.703 42.136 350.983 41.832C350.279 41.528 349.671 41.096 349.159 40.536C348.663 39.96 348.279 39.28 348.007 38.496C347.735 37.696 347.599 36.808 347.599 35.832C347.599 34.84 347.735 33.944 348.007 33.144C348.295 32.344 348.687 31.664 349.183 31.104C349.679 30.528 350.271 30.088 350.959 29.784C351.663 29.48 352.439 29.328 353.287 29.328C354.119 29.328 354.871 29.48 355.543 29.784C356.231 30.088 356.815 30.512 357.295 31.056C357.775 31.584 358.143 32.216 358.399 32.952C358.655 33.688 358.783 34.496 358.783 35.376V36.288H349.615V36.864C349.615 37.408 349.703 37.912 349.879 38.376C350.055 38.84 350.303 39.24 350.623 39.576C350.959 39.912 351.359 40.176 351.823 40.368C352.303 40.544 352.831 40.632 353.407 40.632C354.239 40.632 354.959 40.44 355.567 40.056C356.175 39.672 356.639 39.144 356.959 38.472L358.375 39.432C358.007 40.264 357.391 40.952 356.527 41.496C355.679 42.024 354.639 42.288 353.407 42.288ZM353.287 30.912C352.759 30.912 352.271 31.008 351.823 31.2C351.375 31.392 350.983 31.656 350.647 31.992C350.327 32.328 350.071 32.728 349.879 33.192C349.703 33.64 349.615 34.136 349.615 34.68V34.848H356.719V34.584C356.719 34.04 356.631 33.544 356.455 33.096C356.295 32.648 356.063 32.264 355.759 31.944C355.471 31.608 355.111 31.352 354.679 31.176C354.263 31 353.799 30.912 353.287 30.912ZM365.781 42C364.837 42 364.141 41.736 363.693 41.208C363.261 40.68 363.045 40 363.045 39.168V31.248H358.917V29.616H361.989C362.405 29.616 362.693 29.536 362.853 29.376C363.029 29.2 363.117 28.904 363.117 28.488V25.248H364.965V29.616H370.605V31.248H364.965V40.368H370.605V42H365.781ZM381.852 42C381.1 42 380.564 41.808 380.244 41.424C379.924 41.04 379.724 40.56 379.644 39.984H379.524C379.252 40.704 378.812 41.272 378.204 41.688C377.612 42.088 376.812 42.288 375.804 42.288C374.508 42.288 373.476 41.952 372.708 41.28C371.94 40.608 371.556 39.688 371.556 38.52C371.556 37.368 371.972 36.48 372.804 35.856C373.652 35.232 375.012 34.92 376.884 34.92H379.524V33.696C379.524 32.784 379.268 32.104 378.756 31.656C378.244 31.192 377.516 30.96 376.572 30.96C375.74 30.96 375.06 31.128 374.532 31.464C374.004 31.784 373.58 32.224 373.26 32.784L371.964 31.824C372.124 31.504 372.34 31.192 372.612 30.888C372.884 30.584 373.22 30.32 373.62 30.096C374.02 29.856 374.476 29.672 374.988 29.544C375.5 29.4 376.068 29.328 376.692 29.328C378.148 29.328 379.3 29.696 380.148 30.432C381.012 31.168 381.444 32.192 381.444 33.504V40.32H383.172V42H381.852ZM376.14 40.68C376.636 40.68 377.084 40.624 377.484 40.512C377.9 40.384 378.26 40.224 378.564 40.032C378.868 39.824 379.1 39.584 379.26 39.312C379.436 39.024 379.524 38.72 379.524 38.4V36.36H376.884C375.732 36.36 374.892 36.52 374.364 36.84C373.836 37.16 373.572 37.624 373.572 38.232V38.736C373.572 39.376 373.796 39.864 374.244 40.2C374.708 40.52 375.34 40.68 376.14 40.68Z" fill="#A321EF" fill-opacity="0.81"/>
</svg>
