<?xml version="1.0" encoding="UTF-8"?>
<svg xmlns:xodm="http://www.corel.com/coreldraw/odm/2003" xmlns="http://www.w3.org/2000/svg" xmlns:xlink="http://www.w3.org/1999/xlink" version="1.1" id="Layer_1" x="0px" y="0px" viewBox="0 0 2500 668" style="enable-background:new 0 0 2500 668;" xml:space="preserve">
<style type="text/css">
	.st0{fill:#04111D;}
	.st1{fill:#2081E2;}
	.st2{fill:#FFFFFF;}
</style>
<g id="Layer_x0020_1">
	<g id="_2090513521360">
		<g>
			<path class="st0" d="M973.1,465c-24.3,0-45.8-5.6-66.4-15.9c-19.6-10.3-35.6-25.3-47.7-44.9c-11.2-19.6-17.8-41.2-17.8-65.5     c0-24.3,5.6-45.8,17.8-64.6c12.2-18.7,28.1-33.7,47.7-44.9c19.6-10.3,42.1-15.9,66.4-15.9c24.3,0,45.8,5.6,65.5,15.9     c19.6,10.3,35.6,25.3,46.8,44.9c11.2,18.7,17.8,40.2,17.8,64.6c0,24.3-5.6,45.8-17.8,65.5c-11.2,18.7-27.1,33.7-46.8,44.9     C1018.9,459.4,996.5,465,973.1,465z M973.1,410.7c20.6,0,36.5-6.5,48.6-19.6c12.2-13.1,18.7-29.9,18.7-51.5     c0-21.5-6.5-39.3-18.7-51.5c-12.2-13.1-28.1-19.6-48.6-19.6s-37.4,6.5-49.6,19.6c-12.2,13.1-17.8,29.9-17.8,52.4     c0,21.5,5.6,39.3,17.8,52.4c12.2,13.1,29,19.6,49.6,19.6V410.7z"></path>
			<path class="st0" d="M1199.5,295.6c5.6-9.4,14-16.8,25.3-22.5c10.3-5.6,23.4-8.4,37.4-8.4c16.8,0,31.8,3.7,44.9,12.2     s24.3,19.6,31.8,34.6c8.4,15,12.2,32.7,12.2,52.4s-3.7,37.4-12.2,53.3c-7.5,15-18.7,27.1-31.8,35.6s-29,12.2-44.9,12.2     c-14,0-26.2-2.8-37.4-8.4c-10.3-5.6-18.7-13.1-25.3-21.5v85.1h-61.7V266.6h61.7v28.1V295.6z M1288.4,364.9     c0-15-4.7-26.2-13.1-34.6c-8.4-8.4-18.7-13.1-31.8-13.1c-12.2,0-22.5,4.7-31.8,13.1c-8.4,8.4-13.1,20.6-13.1,35.6     c0,15,4.7,27.1,13.1,35.6s19.6,13.1,31.8,13.1s22.5-4.7,31.8-13.1c8.4-8.4,13.1-20.6,13.1-35.6V364.9z"></path>
			<path class="st0" d="M1574.6,362.1c0,5.6,0,11.2-0.9,17.8h-140.3c0.9,12.2,4.7,21.5,12.2,28.1s15.9,9.4,26.2,9.4     c15.9,0,26.2-6.5,32.7-18.7h66.4c-3.7,13.1-9.4,24.3-18.7,34.6c-8.4,10.3-19.6,18.7-32.7,24.3c-13.1,5.6-28.1,8.4-44.9,8.4     c-19.6,0-37.4-3.7-53.3-12.2c-15.9-8.4-27.1-19.6-36.5-34.6c-8.4-15-13.1-32.7-13.1-53.3c0-20.6,4.7-38.4,13.1-53.3     c8.4-15,20.6-27.1,36.5-34.6c15.9-8.4,33.7-12.2,53.3-12.2c19.6,0,37.4,3.7,52.4,12.2c15,7.5,27.1,19.6,35.6,33.7     c8.4,15,13.1,31.8,13.1,51.5L1574.6,362.1z M1511,346.2c0-10.3-3.7-18.7-11.2-24.3c-7.5-5.6-15.9-9.4-27.1-9.4     c-10.3,0-19.6,2.8-26.2,8.4c-7.5,5.6-11.2,14-13.1,25.3H1511z"></path>
			<path class="st0" d="M1730.9,265.7c23.4,0,42.1,7.5,56.1,22.5s21.5,34.6,21.5,60.8v114.1h-61.7V357.4c0-13.1-3.7-23.4-10.3-30.9     s-16.8-11.2-28.1-11.2c-12.2,0-21.5,3.7-28.1,11.2c-6.5,7.5-10.3,17.8-10.3,30.9v105.7h-61.7V267.6h61.7v26.2     c6.5-8.4,15-15,25.3-20.6C1705.6,268.5,1717.8,265.7,1730.9,265.7z"></path>
			<path class="st0" d="M1944.2,465c-18.7,0-35.6-2.8-49.6-8.4c-15-5.6-26.2-14-35.6-26.2c-8.4-11.2-13.1-25.3-14-41.2h66.4     c0.9,9.4,4.7,15.9,9.4,20.6c5.6,4.7,13.1,6.5,21.5,6.5c9.4,0,16.8-1.9,21.5-5.6c5.6-3.7,8.4-10.3,8.4-16.8c0-5.6-1.9-11.2-6.5-15     c-3.7-3.7-9.4-7.5-15.9-9.4c-5.6-2.8-15-5.6-26.2-8.4c-16.8-4.7-29.9-9.4-40.2-15c-10.3-4.7-19.6-12.2-27.1-21.5     c-7.5-9.4-11.2-22.5-11.2-37.4c0-22.5,8.4-40.2,26.2-53.3c16.8-13.1,39.3-19.6,67.4-19.6c28.1,0,50.5,6.5,67.4,19.6     c16.8,13.1,26.2,30.9,27.1,54.3h-67.4c-0.9-7.5-3.7-14-9.4-18.7c-5.6-4.7-13.1-6.5-21.5-6.5c-7.5,0-13.1,1.9-17.8,5.6     c-4.7,3.7-6.5,9.4-6.5,16.8c0,7.5,3.7,14,11.2,18.7c7.5,4.7,19.6,9.4,36.5,14c16.8,5.6,29.9,10.3,40.2,15     c10.3,4.7,19.6,12.2,27.1,21.5s11.2,21.5,11.2,36.5c0,14-3.7,27.1-11.2,38.4c-7.5,11.2-17.8,20.6-31.8,27.1     c-14,6.5-30.9,10.3-49.6,10.3V465z"></path>
			<path class="st0" d="M2266,362.1c0,5.6,0,11.2-0.9,17.8h-140.3c0.9,12.2,4.7,21.5,12.2,28.1c7.5,6.5,15.9,9.4,26.2,9.4     c15.9,0,26.2-6.5,31.8-18.7h66.4c-3.7,13.1-9.4,24.3-18.7,34.6c-8.4,10.3-19.6,18.7-32.7,24.3c-13.1,5.6-28.1,8.4-44.9,8.4     c-19.6,0-37.4-3.7-53.3-12.2c-15.9-8.4-27.1-19.6-36.5-34.6c-8.4-15-13.1-32.7-13.1-53.3c0-20.6,4.7-38.4,13.1-53.3     c8.4-15,20.6-27.1,36.5-34.6c15.9-8.4,33.7-12.2,53.3-12.2c19.6,0,37.4,3.7,52.4,12.2c15,7.5,27.1,19.6,35.6,33.7     c8.4,15,13.1,31.8,13.1,51.5V362.1z M2202.4,346.2c0-10.3-3.7-18.7-11.2-24.3c-7.5-5.6-15.9-9.4-27.1-9.4     c-10.3,0-19.6,2.8-26.2,8.4c-6.5,5.6-11.2,14-13.1,25.3H2202.4z"></path>
			<path class="st0" d="M2285.7,364.9c0-19.6,3.7-37.4,11.2-52.4c8.4-15,18.7-27.1,32.7-34.6c13.1-8.4,29-12.2,44.9-12.2     c14,0,27.1,2.8,37.4,8.4c11.2,5.6,19.6,13.1,25.3,22.5v-28.1h61.7V464h-61.7V436c-5.6,9.4-15,16.8-25.3,22.5     c-10.3,5.6-23.4,8.4-37.4,8.4c-16.8,0-31.8-3.7-44.9-12.2c-13.1-8.4-24.3-20.6-32.7-35.6c-7.5-15-11.2-32.7-11.2-53.3V364.9z      M2437.2,364.9c0-15-4.7-27.1-13.1-35.6c-8.4-8.4-18.7-13.1-30.9-13.1c-12.2,0-22.5,4.7-31.8,13.1c-8.4,8.4-13.1,19.6-13.1,34.6     c0,15,4.7,27.1,13.1,35.6s19.6,13.1,31.8,13.1c12.2,0,22.5-4.7,30.9-13.1s13.1-20.6,13.1-35.6V364.9z"></path>
		</g>
		<g>
			<path class="st1" d="M668.1,334c0,184.3-149.7,334-334,334S0.1,518.3,0.1,334S149.8,0,334.1,0S668.1,149.7,668.1,334z"></path>
			<path class="st2" d="M164.7,345.2l1.9-1.9l87-135.7c0.9-1.9,4.7-1.9,5.6,0c15,32.7,27.1,73,21.5,98.2     c-2.8,10.3-9.4,24.3-16.8,37.4c-0.9,1.9-1.9,3.7-2.8,5.6c-0.9,0.9-1.9,0.9-2.8,0.9h-89.8c-2.8,0-3.7-2.8-2.8-4.7H164.7z"></path>
			<path class="st2" d="M552.1,370.5V392c0,0.9-0.9,2.8-1.9,2.8c-6.5,2.8-29.9,13.1-39.3,27.1c-24.3,33.7-43,82.3-85.1,82.3h-174     c-61.7,0-111.3-50.5-111.3-112.3v-1.9c0-1.9,0.9-2.8,2.8-2.8h97.3c1.9,0,3.7,1.9,2.8,3.7c-0.9,6.5,0.9,13.1,3.7,18.7     c5.6,12.2,17.8,18.7,30.9,18.7h47.7v-37.4h-47.7c-2.8,0-3.7-2.8-2.8-4.7c0.9-0.9,0.9-1.9,1.9-2.8c4.7-6.5,11.2-15.9,16.8-28.1     c4.7-7.5,8.4-15.9,12.2-24.3c0.9-1.9,0.9-2.8,1.9-4.7c0.9-2.8,1.9-4.7,2.8-7.5c0.9-1.9,0.9-4.7,1.9-6.5c1.9-6.5,1.9-14,1.9-21.5     c0-2.8,0-6.5,0-9.4s-0.9-6.5-0.9-9.4s-0.9-5.6-0.9-8.4c-0.9-4.7-1.9-8.4-2.8-13.1v-1.9c-0.9-2.8-1.9-5.6-2.8-8.4     c-2.8-9.4-5.6-18.7-9.4-27.1c-0.9-3.7-2.8-6.5-3.7-10.3c-1.9-4.7-3.7-9.4-5.6-14c-0.9-1.9-1.9-3.7-2.8-5.6     c-0.9-1.9-1.9-3.7-2.8-5.6c-0.9-1.9-1.9-2.8-1.9-4.7l-5.6-11.2c-0.9-1.9,0.9-2.8,1.9-2.8l36.5,10.3l0,0l0,0l4.7,0.9l5.6,1.9     l1.9,0.9v-21.5c0-10.3,8.4-18.7,18.7-18.7c5.6,0,10.3,1.9,13.1,5.6c3.7,3.7,5.6,8.4,5.6,13.1v32.7l3.7,0.9h0.9     c0.9,0.9,2.8,1.9,3.7,2.8c0.9,0.9,2.8,2.8,4.7,3.7c3.7,2.8,7.5,6.5,12.2,10.3c0.9,0.9,2.8,1.9,3.7,2.8     c5.6,5.6,13.1,12.2,18.7,19.6c1.9,1.9,3.7,3.7,5.6,6.5c1.9,1.9,3.7,4.7,5.6,6.5c1.9,2.8,4.7,5.6,6.5,9.4c0.9,1.9,1.9,2.8,2.8,4.7     c2.8,3.7,4.7,8.4,7.5,12.2c0.9,1.9,1.9,3.7,2.8,5.6c2.8,5.6,4.7,11.2,5.6,16.8c0,0.9,0.9,2.8,0.9,3.7l0,0c0,1.9,0.9,3.7,0.9,5.6     c0.9,5.6,0,11.2-0.9,16.8c-0.9,2.8-0.9,4.7-1.9,7.5c-0.9,2.8-1.9,4.7-2.8,7.5c-1.9,4.7-4.7,9.4-7.5,14c-0.9,1.9-1.9,3.7-2.8,4.7     c-0.9,1.9-2.8,3.7-3.7,4.7c-1.9,1.9-2.8,4.7-4.7,6.5c-1.9,1.9-2.8,3.7-4.7,5.6c-1.9,2.8-4.7,5.6-6.5,7.5     c-0.9,1.9-2.8,2.8-4.7,4.7c-1.9,1.9-2.8,2.8-4.7,4.7s-4.7,3.7-5.6,5.6l-3.7,3.7c-0.9,0.9-0.9,0.9-1.9,0.9h-29v37.4h36.5     c8.4,0,15.9-2.8,22.5-8.4c1.9-1.9,11.2-10.3,22.5-22.5c0,0,0.9-0.9,1.9-0.9l102-29c1.9-0.9,3.7,0.9,3.7,2.8L552.1,370.5z"></path>
		</g>
	</g>
</g>
</svg>
