<svg width="135" height="20" viewBox="0 0 135 20" fill="none" xmlns="http://www.w3.org/2000/svg">
<g clip-path="url(#clip0_91_1590)">
<mask id="mask0_91_1590" style="mask-type:luminance" maskUnits="userSpaceOnUse" x="0" y="0" width="135" height="20">
<path d="M134.444 0H0V20H134.444V0Z" fill="white"/>
</mask>
<g mask="url(#mask0_91_1590)">
<mask id="mask1_91_1590" style="mask-type:luminance" maskUnits="userSpaceOnUse" x="0" y="0" width="135" height="20">
<path d="M134.444 0H0V20H134.444V0Z" fill="white"/>
</mask>
<g mask="url(#mask1_91_1590)">
<path d="M22.7333 15.7667L19.0444 19.7222C18.964 19.8101 18.8661 19.8801 18.7571 19.928C18.648 19.9758 18.5302 20.0003 18.4111 20H0.911101C0.82846 19.9978 0.748183 19.9719 0.679746 19.9256C0.611308 19.8792 0.557563 19.8142 0.524857 19.7382C0.49215 19.6623 0.481844 19.5787 0.495158 19.497C0.50847 19.4154 0.544846 19.3393 0.59999 19.2778L4.28888 15.3222C4.3693 15.2344 4.46717 15.1643 4.57623 15.1164C4.68529 15.0687 4.80312 15.0441 4.92221 15.0444H22.4222C22.5049 15.0467 22.5851 15.0726 22.6536 15.1189C22.722 15.1652 22.7758 15.2302 22.8084 15.3062C22.8411 15.3821 22.8514 15.4658 22.8381 15.5474C22.8249 15.629 22.7884 15.7051 22.7333 15.7667ZM19.0444 7.77778C18.964 7.68996 18.8661 7.61988 18.7571 7.57204C18.648 7.52421 18.5302 7.49968 18.4111 7.5H0.911101C0.82846 7.50224 0.748183 7.52808 0.679746 7.57445C0.611308 7.62082 0.557563 7.68581 0.524857 7.76174C0.49215 7.83767 0.481844 7.92137 0.495158 8.00296C0.50847 8.08456 0.544846 8.16063 0.59999 8.22222L4.28888 12.2222C4.3693 12.31 4.46717 12.3801 4.57623 12.428C4.68529 12.4758 4.80312 12.5003 4.92221 12.5H22.4222C22.5049 12.4978 22.5851 12.4719 22.6536 12.4256C22.722 12.3792 22.7758 12.3142 22.8084 12.2382C22.8411 12.1623 22.8514 12.0787 22.8381 11.997C22.8249 11.9154 22.7884 11.8393 22.7333 11.7778L19.0444 7.77778ZM0.911101 4.95556H18.4111C18.5302 4.95589 18.648 4.93134 18.7571 4.88351C18.8661 4.83568 18.964 4.76561 19.0444 4.67778L22.7333 0.722226C22.7884 0.660632 22.8249 0.584551 22.8381 0.502958C22.8514 0.421366 22.8411 0.337668 22.8084 0.261741C22.7758 0.185814 22.722 0.120828 22.6536 0.0744508C22.5851 0.0280739 22.5049 0.00224188 22.4222 3.20199e-06H4.92221C4.80312 -0.000322587 4.68529 0.0242158 4.57623 0.0720479C4.46717 0.11988 4.3693 0.189952 4.28888 0.277781L0.59999 4.23333C0.544846 4.29493 0.50847 4.37101 0.495158 4.4526C0.481844 4.5342 0.49215 4.6179 0.524857 4.69382C0.557563 4.76974 0.611308 4.83473 0.679746 4.88111C0.748183 4.92749 0.82846 4.95332 0.911101 4.95556Z" fill="#5D6777"/>
<path d="M43.9555 8.44447H34.6V5.33336H46.3778V2.22225H34.5778C34.1717 2.22078 33.7693 2.29967 33.394 2.45438C33.0185 2.60909 32.6774 2.83656 32.3903 3.12368C32.1032 3.4108 31.8757 3.7519 31.721 4.12734C31.5663 4.50276 31.4874 4.90508 31.4889 5.31114V8.46669C31.4874 8.87274 31.5663 9.27507 31.721 9.65049C31.8757 10.0259 32.1032 10.367 32.3903 10.6541C32.6774 10.9413 33.0185 11.1688 33.394 11.3235C33.7693 11.4781 34.1717 11.557 34.5778 11.5556H43.9333V14.6667H31.7111V17.7778H43.9333C44.7525 17.7778 45.5382 17.4523 46.1174 16.8731C46.6968 16.2938 47.0222 15.5081 47.0222 14.6889V11.5333C47.0222 10.718 46.6999 9.93565 46.1253 9.35701C45.5509 8.77836 44.7709 8.45034 43.9555 8.44447Z" fill="#5D6777"/>
<path d="M62.0556 2.22225H52.6778C51.8586 2.22225 51.0729 2.54768 50.4936 3.12696C49.9143 3.70624 49.5889 4.49192 49.5889 5.31114V14.6889C49.5889 15.5081 49.9143 16.2938 50.4936 16.8731C51.0729 17.4523 51.8586 17.7778 52.6778 17.7778H62.0556C62.4616 17.7792 62.8639 17.7003 63.2393 17.5457C63.6148 17.391 63.9559 17.1634 64.243 16.8763C64.5301 16.5892 64.7576 16.2481 64.9123 15.8727C65.067 15.4973 65.1459 15.095 65.1445 14.6889V5.31114C65.1459 4.90508 65.067 4.50276 64.9123 4.12734C64.7576 3.7519 64.5301 3.4108 64.243 3.12368C63.9559 2.83656 63.6148 2.60909 63.2393 2.45438C62.8639 2.29967 62.4616 2.22078 62.0556 2.22225ZM62.0556 14.6667H52.7222V5.33336H62.0556V14.6667Z" fill="#5D6777"/>
<path d="M94.9332 2.22225H85.7777C85.3717 2.22078 84.9693 2.29967 84.5939 2.45438C84.2185 2.60909 83.8773 2.83656 83.5902 3.12368C83.3031 3.4108 83.0757 3.7519 82.9209 4.12734C82.7662 4.50276 82.6873 4.90508 82.6888 5.31114V17.7778H85.7999V12.6667H94.911V17.7778H98.0221V5.31114C98.0221 4.49192 97.6967 3.70624 97.1175 3.12696C96.5381 2.54768 95.7525 2.22225 94.9332 2.22225ZM94.9332 9.55558H85.8221V5.33336H94.9332V9.55558Z" fill="#5D6777"/>
<path d="M131.356 2.22225H122.222C121.817 2.22078 121.413 2.29967 121.039 2.45438C120.663 2.60909 120.322 2.83656 120.034 3.12368C119.748 3.4108 119.52 3.7519 119.366 4.12734C119.211 4.50276 119.132 4.90508 119.133 5.31114V17.7778H122.222V12.6667H131.333V17.7778H134.444V5.31114C134.446 4.90508 134.367 4.50276 134.212 4.12734C134.058 3.7519 133.83 3.4108 133.543 3.12368C133.256 2.83656 132.914 2.60909 132.539 2.45438C132.164 2.29967 131.761 2.22078 131.356 2.22225ZM131.356 9.55558H122.222V5.33336H131.333L131.356 9.55558Z" fill="#5D6777"/>
<path d="M113.233 14.6667H111.989L107.544 3.55558C107.397 3.16248 107.133 2.82399 106.787 2.58563C106.441 2.34725 106.031 2.22044 105.611 2.22225H102.844C102.299 2.22225 101.776 2.43881 101.391 2.8243C101.005 3.20979 100.789 3.73264 100.789 4.2778V17.7778H103.9V5.33336H105.144L109.589 16.4444C109.736 16.8358 109.998 17.173 110.342 17.4112C110.685 17.6494 111.093 17.7773 111.511 17.7778H114.278C114.549 17.7792 114.817 17.7272 115.068 17.6246C115.319 17.5219 115.547 17.3707 115.739 17.1797C115.93 16.9887 116.083 16.7616 116.187 16.5114C116.291 16.2613 116.344 15.9931 116.344 15.7222V2.22225H113.233V14.6667Z" fill="#5D6777"/>
<path d="M71.0222 2.22223H67.9111V14.6889C67.9111 15.5081 68.2365 16.2938 68.8158 16.8731C69.3951 17.4523 70.1808 17.7778 71 17.7778H80.3555V14.6667H71.0222V2.22223Z" fill="#5D6777"/>
</g>
</g>
</g>
<defs>
<clipPath id="clip0_91_1590">
<rect width="134.444" height="20" fill="white"/>
</clipPath>
</defs>
</svg>
